# xmcd
#
# Track frame offsets: 
#        150
#        18289
#        32839
#        48139
#        62342
#        77311
#        94663
#        99149
#        116680
#        134954
#        148919
#        165400
#        175860
#        188208
#        204728
#        220749
#        241791
#        259130
#
# Disc length: 3589 seconds
#
# Revision: 0
# Processed by: cddbd v1.5.2PL0 Copyright (c) Steve Scherf et al.
# Submitted via: ExactAudioCopy v0.99pb4
#
DISCID=ee0e0312
DTITLE=Replacements - We're Sorry, Portland- Disc 2
DYEAR=1991
DGENRE=Ambient
TTITLE0=Asking Me Lies
TTITLE1=Hey, Good Lookin'
TTITLE2=Little Mascara
TTITLE3=Answering Machine
TTITLE4=I'll Be You
TTITLE5=Can't Hardly Wait
TTITLE6=I Don't Know
TTITLE7=Bastards of Young
TTITLE8=I Will Dare
TTITLE9=Bent Out of Shape
TTITLE10=Achin' to Be
TTITLE11=Another Girl, Another Planet
TTITLE12=Nightclub Jitters
TTITLE13=Merry Go Round
TTITLE14=Satellite
TTITLE15=Someone Take the Wheel
TTITLE16=Swinging Party
TTITLE17=Raw Ramp
EXTD=
EXTT0=
EXTT1=
EXTT2=
EXTT3=
EXTT4=
EXTT5=
EXTT6=
EXTT7=
EXTT8=
EXTT9=
EXTT10=
EXTT11=
EXTT12=
EXTT13=
EXTT14=
EXTT15=
EXTT16=
EXTT17=
PLAYORDER=
